HIERARCHY
ROOT Hips
{
	OFFSET 0.000000 0.000000 0.000000
	CHANNELS 6 Xposition Yposition Zposition Zrotation Yrotation Xrotation 
	JOINT LHipJoint
	{
		OFFSET 0.000000 0.000000 0.000000
		CHANNELS 3 Zrotation Yrotation Xrotation
		JOINT LeftUpLeg
		{
			OFFSET 1.363060 -1.794630 0.839290
			CHANNELS 3 Zrotation Yrotation Xrotation
			JOINT LeftLeg
			{
				OFFSET 2.448110 -6.726130 0.000000
				CHANNELS 3 Zrotation Yrotation Xrotation
				JOINT LeftFoot
				{
					OFFSET 2.562200 -7.039590 0.000000
					CHANNELS 3 Zrotation Yrotation Xrotation
					JOINT LeftToeBase
					{
						OFFSET 0.157640 -0.433110 2.322550
						CHANNELS 3 Zrotation Yrotation Xrotation
						End Site
						{
							OFFSET 0.000000 0.000000 0.000000
						}
					}
				}
			}
		}
	}
	JOINT RHipJoint
	{
		OFFSET 0.000000 0.000000 0.000000
		CHANNELS 3 Zrotation Yrotation Xrotation
		JOINT RightUpLeg
		{
			OFFSET -1.305520 -1.794630 0.839290
			CHANNELS 3 Zrotation Yrotation Xrotation
			JOINT RightLeg
			{
				OFFSET -2.542530 -6.985550 0.000000
				CHANNELS 3 Zrotation Yrotation Xrotation
				JOINT RightFoot
				{
					OFFSET -2.568260 -7.056230 0.000000
					CHANNELS 3 Zrotation Yrotation Xrotation
					JOINT RightToeBase
					{
						OFFSET -0.164730 -0.452590 2.363150
						CHANNELS 3 Zrotation Yrotation Xrotation
						End Site
						{
							OFFSET 0.000000 0.000000 0.000000
						}
					}
				}
			}
		}
	}
	JOINT LowerBack
	{
		OFFSET 0.000000 0.000000 0.000000
		CHANNELS 3 Zrotation Yrotation Xrotation
		JOINT Spine
		{
			OFFSET 0.028270 2.035590 -0.193380
			CHANNELS 3 Zrotation Yrotation Xrotation
			JOINT Spine1
			{
				OFFSET 0.056720 2.048850 -0.042750
				CHANNELS 3 Zrotation Yrotation Xrotation
				JOINT Neck
				{
					OFFSET 0.000000 0.000000 0.000000
					CHANNELS 3 Zrotation Yrotation Xrotation
					JOINT Neck1
					{
						OFFSET -0.054170 1.746240 0.172020
						CHANNELS 3 Zrotation Yrotation Xrotation
						JOINT Head
						{
							OFFSET 0.104070 1.761360 -0.123970
							CHANNELS 3 Zrotation Yrotation Xrotation
							End Site
							{
								OFFSET 0.000000 0.000000 0.000000
							}
						}
					}
				}
				JOINT LeftShoulder
				{
					OFFSET 0.000000 0.000000 0.000000
					CHANNELS 3 Zrotation Yrotation Xrotation
					JOINT LeftArm
					{
						OFFSET 3.362410 1.200890 -0.311210
						CHANNELS 3 Zrotation Yrotation Xrotation
						JOINT LeftForeArm
						{
							OFFSET 4.983000 -0.000000 -0.000000
							CHANNELS 3 Zrotation Yrotation Xrotation
							JOINT LeftHand
							{
								OFFSET 3.483560 -0.000000 -0.000000
								CHANNELS 3 Zrotation Yrotation Xrotation
								JOINT LeftFingerBase
								{
									OFFSET 0.000000 0.000000 0.000000
									CHANNELS 3 Zrotation Yrotation Xrotation
									JOINT LeftHandIndex1
									{
										OFFSET 0.715260 -0.000000 -0.000000
										CHANNELS 3 Zrotation Yrotation Xrotation
										End Site
										{
											OFFSET 0.000000 0.000000 0.000000
										}
									}
								}
								JOINT LThumb
								{
									OFFSET 0.000000 0.000000 0.000000
									CHANNELS 3 Zrotation Yrotation Xrotation
									End Site
									{
										OFFSET 0.000000 0.000000 0.000000
									}
								}
							}
						}
					}
				}
				JOINT RightShoulder
				{
					OFFSET 0.000000 0.000000 0.000000
					CHANNELS 3 Zrotation Yrotation Xrotation
					JOINT RightArm
					{
						OFFSET -3.136600 1.374050 -0.404650
						CHANNELS 3 Zrotation Yrotation Xrotation
						JOINT RightForeArm
						{
							OFFSET -5.241900 -0.000000 -0.000000
							CHANNELS 3 Zrotation Yrotation Xrotation
							JOINT RightHand
							{
								OFFSET -3.444170 -0.000000 -0.000000
								CHANNELS 3 Zrotation Yrotation Xrotation
								JOINT RightFingerBase
								{
									OFFSET 0.000000 0.000000 0.000000
									CHANNELS 3 Zrotation Yrotation Xrotation
									JOINT RightHandIndex1
									{
										OFFSET -0.622530 -0.000000 -0.000000
										CHANNELS 3 Zrotation Yrotation Xrotation
										End Site
										{
											OFFSET 0.000000 0.000000 0.000000
										}
									}
								}
								JOINT RThumb
								{
									OFFSET 0.000000 0.000000 0.000000
									CHANNELS 3 Zrotation Yrotation Xrotation
									End Site
									{
										OFFSET 0.000000 0.000000 0.000000
									}
								}
							}
						}
					}
				}
			}
		}
	}
}
MOTION
Frames: 12
Frame Time: 0.008333
5.343144 17.249300 -1.025775 -149.128411 -74.915981 151.125056 6.131912 2.854915 -1.360843 -17.247493 13.837522 -31.542973 17.924127 20.385512 81.842826 -2.409593 19.928347 27.158121 0.017800 -0.860800 -2.366000 -10.106544 -3.620818 -2.198816 40.553878 0.415322 -15.257901 -3.693707 -12.050601 36.903387 -2.703802 9.933994 -5.447717 -0.033600 1.183000 -3.252400 8.607323 -2.198838 11.970090 0.718955 -1.987787 -3.859399 -3.903614 -1.363300 -9.826414 -1.757737 5.099872 -7.351138 4.259202 7.059937 1.061097 1.640400 3.569200 -0.554300 0.808262 -11.583570 2.586019 -84.280918 -10.838971 14.005485 89.960389 -53.348065 -61.594097 1.660267 1.526072 36.560720 41.773721 50.768497 33.310400 -7.125000 0.000000 0.000000 -4.329400 86.131700 -4.027700 -0.543921 11.788980 3.240068 92.936319 -19.015421 33.154920 -101.401081 54.855975 -61.593238 -3.528721 0.274739 -9.714940 -0.854356 44.996171 1.871900 7.125000 0.000000 0.000000 19.459300 12.066700 24.380100 
5.035101 17.338310 -1.028768 -155.237255 -71.909075 156.310462 6.154776 2.933478 -1.338394 -16.380906 16.976969 -33.280322 18.204116 20.419496 82.759720 -2.505046 19.194224 25.707197 0.016300 -0.823900 -2.264400 -10.161405 -3.659210 -2.483096 40.249395 -1.100764 -12.329924 -3.526205 -11.330872 35.199570 -3.053367 12.661824 -4.590348 -0.042500 1.330900 -3.659700 7.673066 -1.946436 12.794308 0.772484 -1.670003 -3.690392 -3.320932 -1.119575 -9.583328 -1.289098 6.090444 -7.238672 4.200334 8.311323 1.172155 1.415100 4.181700 -0.535700 0.748772 -11.541106 2.699298 -82.769800 -9.774185 10.467491 90.549126 -53.334416 -62.739282 1.651361 1.464023 35.315927 40.261427 49.094202 31.236300 -7.125000 0.000000 0.000000 -3.647400 84.093400 -3.253000 -0.476743 11.784318 3.223895 92.968330 -18.166924 33.586931 -102.138595 54.563674 -62.411384 -3.462142 0.263343 -9.839130 -0.840657 44.933308 1.831100 7.125000 0.000000 0.000000 19.430800 12.024100 24.329500 
4.756322 17.379767 -1.031096 -159.404668 -69.199804 159.510556 6.208339 2.978894 -1.323060 -15.508036 18.571235 -34.561366 18.171769 20.445603 82.597021 -2.713481 19.138988 24.630099 0.016400 -0.827700 -2.274700 -10.167334 -3.660397 -2.699863 39.750177 -2.112907 -9.766469 -3.429501 -10.801514 34.005911 -3.289184 14.629959 -4.280689 -0.056600 1.535600 -4.223700 6.574712 -1.792308 13.913542 0.835288 -1.476527 -3.565296 -2.576179 -0.933921 -9.595724 -1.080315 6.999301 -7.357955 4.337212 9.468012 1.452777 1.361800 4.756200 -0.378800 0.679899 -11.525991 2.786578 -81.481627 -8.700506 6.669438 91.479995 -53.341950 -64.249057 1.660584 1.379119 33.579821 39.445975 47.380893 29.760200 -7.125000 0.000000 0.000000 -1.802700 82.291700 -1.544600 -0.405685 11.802035 3.201512 92.844965 -17.378961 34.120054 -102.852108 54.269115 -63.198406 -3.391471 0.249618 -9.711544 -1.203140 44.511079 1.518000 7.125000 0.000000 0.000000 19.211000 11.708100 23.942900 
4.480092 17.403266 -1.020566 -160.683751 -67.237332 161.832463 6.351696 2.837359 -1.396119 -15.091116 18.245393 -37.629063 17.928784 20.630547 81.962780 -3.166876 19.086661 22.457630 0.024600 -1.012700 -2.783700 -10.245961 -3.618164 -2.648687 39.919926 -1.015778 -8.987762 -3.219162 -10.446067 32.852355 -3.327297 14.863567 -4.406386 -0.061100 1.594500 -4.386200 6.299025 -1.751438 12.940634 0.957574 -1.556068 -3.634199 -2.085368 -0.927719 -9.317381 -0.777864 7.811735 -7.572663 4.384006 10.504859 1.762038 1.272000 5.273600 -0.204500 0.649726 -11.477992 2.832592 -80.291261 -7.649066 2.850356 92.491854 -53.404747 -65.830824 1.697280 1.271479 31.551047 39.626491 45.562472 29.076400 -7.125000 0.000000 0.000000 1.841900 80.747100 1.521900 -0.336732 11.782478 3.161938 92.708660 -16.813661 34.415875 -103.164678 54.143225 -63.569618 -3.352660 0.244972 -9.540731 -1.565747 44.260541 1.235500 7.125000 0.000000 0.000000 19.013100 11.541400 23.627000 
4.306727 17.390297 -0.975340 -157.912953 -67.826758 161.074062 6.577373 2.544510 -1.482860 -14.433082 14.181164 -41.634176 17.573555 20.990547 80.938744 -4.130682 20.208844 19.529808 0.052100 -1.472800 -4.050900 -10.306317 -3.573159 -2.407261 40.647874 0.053845 -9.941674 -2.987030 -10.320362 32.118668 -3.174178 13.261545 -5.035451 -0.076400 1.782800 -4.905900 6.931041 -2.596217 12.299884 1.241233 -2.688869 -3.965207 -1.598068 -1.476690 -9.991124 -0.390705 8.514813 -7.687717 4.301899 11.413470 1.838329 1.140000 5.723100 -0.052500 0.624976 -11.488896 2.853357 -78.413633 -6.849358 -1.562388 93.022743 -53.439942 -67.059254 1.713363 1.204218 31.639197 37.146802 46.996508 27.567200 -7.125000 0.000000 0.000000 -8.665200 81.270900 -7.255800 -0.207927 11.864067 3.092162 92.505350 -16.278272 34.517139 -103.222070 54.065211 -63.726859 -3.309758 0.272782 -9.670034 -0.988019 44.149262 1.594300 7.125000 0.000000 0.000000 19.250800 11.335200 23.901900 
4.020078 17.400717 -0.926013 -156.930842 -66.146139 160.841953 6.714220 2.443465 -1.557069 -12.956503 13.286211 -43.277649 16.732741 21.021207 78.851375 -4.681769 19.787135 15.641340 0.251100 -3.224100 -8.903400 -10.391679 -3.560872 -2.361318 41.369304 1.007835 -8.799995 -2.828593 -10.076428 31.368112 -3.192258 13.114399 -5.409964 -0.103800 2.077900 -5.721100 7.980231 -2.585327 11.973956 1.366274 -2.609754 -4.009872 -1.676743 -1.482984 -9.970374 -0.062299 9.063464 -7.891653 4.223757 12.131151 1.979763 1.054900 6.083500 0.079700 0.570007 -11.477355 2.902944 -77.091929 -6.109806 -5.868786 93.919550 -53.548068 -68.501871 1.748785 1.126739 31.433454 35.028953 47.784301 26.055900 -7.125000 0.000000 0.000000 -16.796400 81.182700 -14.067700 -0.119483 11.865020 3.053359 92.181877 -15.990399 34.619984 -103.758168 53.857659 -64.392967 -3.241056 0.299542 -10.054848 -0.063828 43.949694 2.163000 7.125000 0.000000 0.000000 19.631900 10.999200 24.341100 
3.729659 17.420448 -0.866821 -156.872897 -64.740026 161.597822 6.793263 2.357447 -1.622045 -12.027424 12.348506 -44.667872 15.646764 20.968867 75.994421 -5.400094 20.061134 11.562282 0.643200 -5.130700 -14.281800 -10.451227 -3.533059 -2.330357 41.504876 1.841794 -7.839229 -2.686719 -9.810459 30.577068 -3.227538 13.109823 -5.741091 -0.133300 2.353000 -6.482200 8.682117 -2.443890 11.559694 1.418024 -2.411445 -4.071776 -1.825625 -1.427450 -9.994767 0.252594 9.464276 -8.077054 4.144364 12.658769 2.027388 0.978700 6.348400 0.173100 0.533686 -11.474960 2.917024 -76.784883 -5.445890 -10.394319 96.423982 -53.703189 -71.318379 1.760795 1.032264 32.007681 29.707887 47.639392 21.584300 -7.125000 0.000000 0.000000 -25.950700 78.872900 -20.663500 -0.052587 11.882493 3.011395 91.860570 -15.953779 34.591267 -104.840337 53.470650 -65.709686 -3.137139 0.316148 -10.331947 0.439689 43.809532 2.421100 7.125000 0.000000 0.000000 19.806700 10.802300 24.530600 
3.422392 17.442506 -0.802752 -157.545593 -63.318100 163.139543 6.820685 2.302948 -1.679540 -11.525461 11.790308 -45.858379 14.364770 20.796318 72.452206 -6.619993 21.665999 6.656777 0.520100 -4.621900 -12.833300 -10.501641 -3.511994 -2.327472 41.176099 2.403678 -6.879220 -2.527115 -9.418152 29.465829 -3.267081 13.539038 -5.568467 -0.113300 2.170100 -5.976100 9.084074 -2.110005 10.973178 1.427286 -2.018780 -4.148969 -1.938695 -1.263690 -9.970169 0.351025 9.733641 -8.382021 4.211642 13.029089 2.080907 1.020400 6.538300 0.254700 0.445440 -11.468798 2.938738 -75.616913 -4.723328 -14.172007 97.130984 -53.853199 -72.412573 1.847981 0.955174 30.708699 30.537642 47.778010 22.228100 -7.125000 0.000000 0.000000 -25.991300 79.388400 -20.960100 0.014930 11.887189 2.967442 91.434503 -16.175009 34.482567 -106.015313 53.068448 -67.173815 -3.029923 0.336598 -10.315044 0.430713 43.736690 2.333900 7.125000 0.000000 0.000000 19.746300 10.743500 24.430900 
3.110802 17.461793 -0.734138 -158.228663 -62.055860 164.879579 6.832331 2.250801 -1.724889 -11.288581 11.434108 -47.114627 12.953766 20.498907 68.593135 -7.519602 22.882490 2.505076 0.561700 -4.800400 -13.340100 -10.524296 -3.516071 -2.314024 40.586538 2.404390 -6.560992 -2.437002 -9.094897 28.555683 -3.354092 14.522141 -5.180244 -0.086300 1.894900 -5.215200 9.334103 -1.715353 10.200686 1.452117 -1.599079 -4.257822 -1.874950 -1.067991 -9.944137 0.215269 9.950828 -8.778368 4.420453 13.342821 2.149552 1.171200 6.703200 0.327200 0.352220 -11.462410 2.945476 -74.466933 -3.873953 -17.718570 97.727638 -54.018061 -73.358178 1.941418 0.876137 28.632909 32.670619 47.120912 23.673800 -7.125000 0.000000 0.000000 -21.266400 79.847200 -17.289300 0.092078 11.877755 2.931563 90.807368 -16.513848 34.441435 -107.159075 52.689650 -68.627341 -2.924366 0.356857 -10.215890 0.061968 43.560422 2.000700 7.125000 0.000000 0.000000 19.514700 10.632700 24.080800 
2.797993 17.476093 -0.662863 -158.103861 -60.825143 165.695904 6.861975 2.214336 -1.773727 -10.833119 11.515166 -48.260060 11.692077 20.122596 65.045050 -8.184909 23.900302 -0.640761 0.597400 -4.948200 -13.760800 -10.527566 -3.552606 -2.294435 40.181483 1.902642 -6.596883 -2.465364 -8.950859 28.196709 -3.508805 16.181528 -4.776939 -0.058200 1.557300 -4.283800 9.926563 -1.296510 9.646980 1.494395 -1.098456 -4.347864 -1.892942 -0.852212 -10.026785 0.248777 10.062497 -8.733475 4.309380 13.510276 1.808441 1.107200 6.778700 0.175500 0.268350 -11.463875 2.965252 -73.440030 -3.006158 -21.608771 99.232566 -54.202434 -75.047551 2.005163 0.842289 28.557375 30.451540 48.313996 22.200700 -7.125000 0.000000 0.000000 -29.560700 79.848300 -24.166900 0.196559 11.862407 2.917959 90.141514 -16.864798 34.398917 -108.432250 52.282405 -70.239963 -2.807729 0.386934 -10.298873 -0.010625 43.496543 1.862800 7.125000 0.000000 0.000000 19.418000 10.578300 23.932900 
2.490393 17.489173 -0.584716 -159.257318 -59.867063 167.561410 6.847513 2.192521 -1.805691 -11.265172 11.846505 -49.390585 10.551971 19.710220 61.786546 -8.818475 25.066360 -3.000010 0.588300 -4.910800 -13.654500 -10.482907 -3.561026 -2.296659 38.915940 1.328454 -6.879002 -2.564680 -8.867348 28.075830 -3.634663 18.040530 -4.268916 -0.042900 1.337400 -3.677700 9.712370 -0.801058 9.205413 1.464609 -0.535683 -4.438198 -1.774952 -0.565108 -10.154493 0.263175 10.068991 -8.693169 4.250879 13.533821 1.489578 1.064700 6.782800 0.039300 0.171189 -11.453502 2.971037 -72.482699 -2.224687 -25.134001 100.574052 -54.370283 -76.516204 2.074729 0.798756 28.519793 28.968144 49.031674 21.151000 -7.125000 0.000000 0.000000 -34.848000 79.721200 -28.531800 0.286346 11.858086 2.915041 89.429847 -17.151369 34.326081 -109.819981 51.854908 -72.000210 -2.676067 0.431455 -10.501917 0.226184 43.516917 1.924000 7.125000 0.000000 0.000000 19.460200 10.553800 23.984400 
2.189001 17.406038 -0.497923 -159.738342 -59.037560 168.372993 6.875907 2.181134 -1.834490 -11.809230 12.795404 -50.824980 9.871636 19.432041 59.919591 -8.914344 25.070171 -4.605587 0.505800 -4.559200 -12.655300 -10.440638 -3.575601 -2.315379 38.004409 0.668805 -6.886279 -2.690429 -8.876889 28.255373 -3.739290 19.539742 -4.096471 -0.070300 1.710000 -4.704800 9.714674 -0.376796 9.283410 1.481077 0.026674 -4.472003 -1.557440 -0.275478 -10.324110 0.171058 10.000718 -8.686603 4.156834 13.461504 1.118929 1.029400 6.738300 -0.108200 0.085684 -11.450390 2.976080 -71.620591 -1.613936 -28.444846 101.740020 -54.516504 -77.773272 2.143610 0.748243 28.383394 27.923509 49.294307 20.314300 -7.125000 0.000000 0.000000 -37.561500 79.446000 -30.638700 0.395725 11.841104 2.936557 88.462912 -17.099791 34.332631 -111.085398 51.469727 -73.648947 -2.546408 0.480767 -10.738415 0.426430 43.400837 1.955300 7.125000 0.000000 0.000000 19.479700 10.400100 23.969900 
